<svg width="25" height="16" viewBox="0 0 25 16" fill="none" xmlns="http://www.w3.org/2000/svg">
<mask id="path-1-outside-1_35_981" maskUnits="userSpaceOnUse" x="0.80957" y="0.131348" width="24" height="15" fill="black">
<rect fill="white" x="0.80957" y="0.131348" width="24" height="15"/>
<path d="M11.642 13.7882L2.15271 4.29846C1.69519 3.84094 1.69519 3.09876 2.15271 2.64124L3.25964 1.5343C3.71667 1.07727 4.45691 1.07678 4.91492 1.53235L12.4706 9.05334L20.0267 1.53284C20.4847 1.07678 21.225 1.07776 21.682 1.53479L22.7889 2.64172C23.2465 3.09924 23.2465 3.84143 22.7889 4.29895L13.2992 13.7882C12.8417 14.2457 12.0995 14.2457 11.642 13.7882Z"/>
</mask>
<path d="M11.642 13.7882L2.15271 4.29846C1.69519 3.84094 1.69519 3.09876 2.15271 2.64124L3.25964 1.5343C3.71667 1.07727 4.45691 1.07678 4.91492 1.53235L12.4706 9.05334L20.0267 1.53284C20.4847 1.07678 21.225 1.07776 21.682 1.53479L22.7889 2.64172C23.2465 3.09924 23.2465 3.84143 22.7889 4.29895L13.2992 13.7882C12.8417 14.2457 12.0995 14.2457 11.642 13.7882Z" fill="#796EE8"/>
<path d="M11.642 13.7882L2.15271 4.29846C1.69519 3.84094 1.69519 3.09876 2.15271 2.64124L3.25964 1.5343C3.71667 1.07727 4.45691 1.07678 4.91492 1.53235L12.4706 9.05334L20.0267 1.53284C20.4847 1.07678 21.225 1.07776 21.682 1.53479L22.7889 2.64172C23.2465 3.09924 23.2465 3.84143 22.7889 4.29895L13.2992 13.7882C12.8417 14.2457 12.0995 14.2457 11.642 13.7882Z" stroke="black" stroke-width="2" mask="url(#path-1-outside-1_35_981)"/>
</svg>
