<svg width="44" height="44" viewBox="0 0 44 44" fill="none" xmlns="http://www.w3.org/2000/svg">
<path d="M25.5 21.0444V4.5C25.5 2.5649 23.9351 1 22 1C20.0649 1 18.5 2.5649 18.5 4.5V21.0467L14.4727 17.0195C13.1056 15.6524 10.8865 15.6524 9.51946 17.0195C8.15237 18.3865 8.15237 20.6056 9.51946 21.9727L19.5195 31.9727C20.8865 33.3398 23.1056 33.3398 24.4727 31.9727L34.4727 21.9727C35.8398 20.6056 35.8398 18.3865 34.4727 17.0195C33.1056 15.6524 30.8865 15.6524 29.5195 17.0195L29.519 17.0199L25.5 21.0444ZM29.0703 28.5H28.6561L28.3632 28.7929L24.8241 32.332C23.2615 33.8946 20.7306 33.8946 19.168 32.332L15.6376 28.7937L15.3445 28.5H14.9297H7C3.6899 28.5 1 31.1899 1 34.5V37C1 40.3101 3.6899 43 7 43H37C40.3101 43 43 40.3101 43 37V34.5C43 31.1899 40.3101 28.5 37 28.5H29.0703ZM35.75 34.875C35.9821 34.875 36.2046 34.9672 36.3687 35.1313C36.5328 35.2954 36.625 35.5179 36.625 35.75C36.625 35.9821 36.5328 36.2046 36.3687 36.3687C36.2046 36.5328 35.9821 36.625 35.75 36.625C35.5179 36.625 35.2954 36.5328 35.1313 36.3687C34.9672 36.2046 34.875 35.9821 34.875 35.75C34.875 35.5179 34.9672 35.2954 35.1313 35.1313C35.2954 34.9672 35.5179 34.875 35.75 34.875Z" fill="#796EE8" stroke="black" stroke-width="2"/>
</svg>
