<svg width="38" height="34" viewBox="0 0 38 34" fill="none" xmlns="http://www.w3.org/2000/svg">
<path d="M36.8244 16.5605L36.8203 16.5972V16.6341C36.8203 17.4271 36.1531 18.0573 35.4036 18.0573H33.3203H32.6507L32.6536 18.7269L32.6992 29.1536C32.6992 29.154 32.6992 29.1544 32.6992 29.1548C32.6992 29.298 32.6885 29.4474 32.6707 29.6074L32.6667 29.6441V29.681V30.7292C32.6667 31.7998 31.7998 32.6667 30.7292 32.6667H29.6875C29.6109 32.6667 29.5695 32.6662 29.533 32.6629L29.4791 32.658L29.4251 32.6618C29.3617 32.6664 29.2943 32.6667 29.1992 32.6667H27.0833H25.5208C24.4502 32.6667 23.5833 31.7998 23.5833 30.7292V29.1667V25C23.5833 23.4795 22.3539 22.25 20.8333 22.25H16.6667C15.1461 22.25 13.9167 23.4795 13.9167 25V29.1667V30.7292C13.9167 31.7998 13.0498 32.6667 11.9792 32.6667H10.4167H8.33984C8.2681 32.6667 8.19263 32.6619 8.09123 32.6551L8.04133 32.6518L7.9915 32.6559C7.90867 32.6628 7.85824 32.6667 7.8125 32.6667H6.77083C5.70022 32.6667 4.83333 31.7998 4.83333 30.7292V23.4375C4.83333 23.3709 4.83408 23.344 4.83577 23.3288L4.83984 23.2921V23.2552V18.724V18.0573H4.17318H2.08333C1.28101 18.0573 0.666667 17.4457 0.666667 16.6341C0.666667 16.2248 0.792378 15.8799 1.10752 15.5581L17.7818 1.02338L17.799 1.00838L17.8151 0.992238C18.0855 0.721882 18.388 0.666667 18.776 0.666667C19.1197 0.666667 19.4714 0.766839 19.7106 0.963011L36.3307 15.5723L36.3318 15.5733C36.7428 15.933 36.8584 16.2544 36.8244 16.5605Z" fill="#61BECB" stroke="black" stroke-width="1.33333"/>
</svg>
