<svg width="27" height="24" viewBox="0 0 27 24" fill="none" xmlns="http://www.w3.org/2000/svg">
<path d="M17 15V14.6667H16.6667H10C9.26222 14.6667 8.66667 14.0711 8.66667 13.3333V10C8.66667 9.26222 9.26222 8.66667 10 8.66667H16.6667H17V8.33333V5.09896C17 4.30909 17.6424 3.66667 18.4323 3.66667C18.8113 3.66667 19.1753 3.81813 19.4476 4.08563C19.4479 4.08592 19.4482 4.08621 19.4485 4.08651L25.8424 10.4805C26.1548 10.7929 26.3333 11.2237 26.3333 11.6667C26.3333 12.1096 26.1548 12.5404 25.8424 12.8528L19.4466 19.2487C19.1767 19.5186 18.8139 19.6667 18.4323 19.6667C17.6424 19.6667 17 19.0242 17 18.2344V15ZM8.33333 3H6C5.73032 3 5.48712 3.05368 5.2992 3.20341C5.10639 3.35704 5.02595 3.56816 4.99238 3.7649C4.95986 3.95549 4.96544 4.16824 4.97491 4.36656C4.97744 4.41962 4.98029 4.47226 4.98315 4.52486C4.99158 4.68047 5 4.83568 5 5V11.6667V18.2344C5 18.3966 4.99181 18.553 4.98349 18.7119C4.98051 18.7688 4.97752 18.826 4.97487 18.884C4.96537 19.0924 4.96016 19.3148 4.9917 19.5148C5.02365 19.7174 5.09942 19.9383 5.28607 20.1034C5.47387 20.2695 5.72171 20.3333 6 20.3333H8.33333C9.07111 20.3333 9.66667 20.9289 9.66667 21.6667C9.66667 22.4044 9.07111 23 8.33333 23H5C2.42368 23 0.333333 20.9097 0.333333 18.3333V5C0.333333 2.42368 2.42368 0.333333 5 0.333333H8.33333C9.07111 0.333333 9.66667 0.928886 9.66667 1.66667C9.66667 2.40445 9.07111 3 8.33333 3Z" fill="#FBFCF4" stroke="black" stroke-width="0.666667"/>
</svg>
