<svg width="354" height="92" viewBox="0 0 354 92" fill="none" xmlns="http://www.w3.org/2000/svg">
<rect x="225" y="16.8001" width="39.2" height="41.6" stroke="#3AAEBE" stroke-width="1.6"/>
<g clip-path="url(#clip0_17_312)">
<path d="M85.9557 38.8779C85.9557 52.5696 67.627 76.9452 59.5906 87.0024C57.6638 89.3993 54.092 89.3993 52.1652 87.0024C44.1287 76.9452 25.8 52.5696 25.8 38.8779C25.8 22.2724 39.2724 8.80005 55.8779 8.80005C72.4834 8.80005 85.9557 22.2724 85.9557 38.8779Z" fill="#3AAEBE"/>
<circle cx="56.2" cy="38.3999" r="20" fill="#3D3D3E"/>
</g>
<path d="M3.94395 16.68H11.7776V50.376H31.9376V57H3.94395V16.68ZM82.7367 50.376V23.304L89.3607 16.68H109.06L115.569 23.1888V29.352H107.735V26.0688L105.028 23.3616H93.5079L90.5703 26.2992V47.3808L93.5079 50.3184H105.028L107.735 47.6112V44.328H115.569V50.4912L109.06 57H89.3607L82.7367 50.376ZM132.065 16.68H139.207L153.953 57H146.004L142.721 48.072H128.551L125.268 57H117.319L132.065 16.68ZM140.993 41.6208L135.636 26.2992H135.521L130.337 41.6208H140.993ZM158.013 16.68H165.846V50.376H186.006V57H158.013V16.68Z" fill="#FBFCF4"/>
<path d="M190.3 16.68H219.446V23.304H198.134V33.4992H217.775V40.008H198.134V50.376H219.446V57H190.3V16.68ZM225.231 16.68H232.489L244.47 42.7152H244.585L256.623 16.68H263.881V57H256.335V32.4624H256.22L246.947 51.3552H242.108L232.892 32.4624H232.777V57H225.231V16.68ZM282.646 16.68H289.788L304.534 57H296.585L293.302 48.072H279.132L275.849 57H267.9L282.646 16.68ZM291.574 41.6208L286.217 26.2992H286.102L280.918 41.6208H291.574ZM308.882 16.68H316.716V57H308.882V16.68ZM324.513 16.68H332.346V50.376H352.506V57H324.513V16.68Z" fill="#3AAEBE"/>
<defs>
<clipPath id="clip0_17_312">
<rect width="60" height="83.2" fill="white" transform="translate(25.8 8.80005)"/>
</clipPath>
</defs>
</svg>
