<svg width="44" height="45" viewBox="0 0 44 45" fill="none" xmlns="http://www.w3.org/2000/svg">
<mask id="path-1-outside-1_148_3962" maskUnits="userSpaceOnUse" x="0" y="0" width="44" height="45" fill="black">
<rect fill="white" width="44" height="45"/>
<path d="M34.5 18.25C34.5 21.8359 33.3359 25.1484 31.375 27.8359L41.2656 37.7344C42.2422 38.7109 42.2422 40.2969 41.2656 41.2734C40.2891 42.25 38.7031 42.25 37.7266 41.2734L27.8359 31.375C25.1484 33.3438 21.8359 34.5 18.25 34.5C9.27344 34.5 2 27.2266 2 18.25C2 9.27344 9.27344 2 18.25 2C27.2266 2 34.5 9.27344 34.5 18.25ZM24.5 15.75C24.5 12.2969 21.7031 9.5 18.25 9.5C14.7969 9.5 12 12.2969 12 15.75C12 19.5625 15.6328 24.4688 17.3594 26.5781C17.8281 27.1484 18.6719 27.1484 19.1328 26.5781C20.8594 24.4688 24.4922 19.5625 24.4922 15.75H24.5ZM15.75 15.75C15.75 15.087 16.0134 14.4511 16.4822 13.9822C16.9511 13.5134 17.587 13.25 18.25 13.25C18.913 13.25 19.5489 13.5134 20.0178 13.9822C20.4866 14.4511 20.75 15.087 20.75 15.75C20.75 16.413 20.4866 17.0489 20.0178 17.5178C19.5489 17.9866 18.913 18.25 18.25 18.25C17.587 18.25 16.9511 17.9866 16.4822 17.5178C16.0134 17.0489 15.75 16.413 15.75 15.75Z"/>
</mask>
<path d="M34.5 18.25C34.5 21.8359 33.3359 25.1484 31.375 27.8359L41.2656 37.7344C42.2422 38.7109 42.2422 40.2969 41.2656 41.2734C40.2891 42.25 38.7031 42.25 37.7266 41.2734L27.8359 31.375C25.1484 33.3438 21.8359 34.5 18.25 34.5C9.27344 34.5 2 27.2266 2 18.25C2 9.27344 9.27344 2 18.25 2C27.2266 2 34.5 9.27344 34.5 18.25ZM24.5 15.75C24.5 12.2969 21.7031 9.5 18.25 9.5C14.7969 9.5 12 12.2969 12 15.75C12 19.5625 15.6328 24.4688 17.3594 26.5781C17.8281 27.1484 18.6719 27.1484 19.1328 26.5781C20.8594 24.4688 24.4922 19.5625 24.4922 15.75H24.5ZM15.75 15.75C15.75 15.087 16.0134 14.4511 16.4822 13.9822C16.9511 13.5134 17.587 13.25 18.25 13.25C18.913 13.25 19.5489 13.5134 20.0178 13.9822C20.4866 14.4511 20.75 15.087 20.75 15.75C20.75 16.413 20.4866 17.0489 20.0178 17.5178C19.5489 17.9866 18.913 18.25 18.25 18.25C17.587 18.25 16.9511 17.9866 16.4822 17.5178C16.0134 17.0489 15.75 16.413 15.75 15.75Z" fill="#61BECB"/>
<path d="M34.5 18.25C34.5 21.8359 33.3359 25.1484 31.375 27.8359L41.2656 37.7344C42.2422 38.7109 42.2422 40.2969 41.2656 41.2734C40.2891 42.25 38.7031 42.25 37.7266 41.2734L27.8359 31.375C25.1484 33.3438 21.8359 34.5 18.25 34.5C9.27344 34.5 2 27.2266 2 18.25C2 9.27344 9.27344 2 18.25 2C27.2266 2 34.5 9.27344 34.5 18.25ZM24.5 15.75C24.5 12.2969 21.7031 9.5 18.25 9.5C14.7969 9.5 12 12.2969 12 15.75C12 19.5625 15.6328 24.4688 17.3594 26.5781C17.8281 27.1484 18.6719 27.1484 19.1328 26.5781C20.8594 24.4688 24.4922 19.5625 24.4922 15.75H24.5ZM15.75 15.75C15.75 15.087 16.0134 14.4511 16.4822 13.9822C16.9511 13.5134 17.587 13.25 18.25 13.25C18.913 13.25 19.5489 13.5134 20.0178 13.9822C20.4866 14.4511 20.75 15.087 20.75 15.75C20.75 16.413 20.4866 17.0489 20.0178 17.5178C19.5489 17.9866 18.913 18.25 18.25 18.25C17.587 18.25 16.9511 17.9866 16.4822 17.5178C16.0134 17.0489 15.75 16.413 15.75 15.75Z" stroke="black" stroke-width="4" mask="url(#path-1-outside-1_148_3962)"/>
</svg>
