<svg width="15" height="24" viewBox="0 0 15 24" fill="none" xmlns="http://www.w3.org/2000/svg">
<mask id="path-1-outside-1_35_1154" maskUnits="userSpaceOnUse" x="0" y="0" width="15" height="24" fill="black">
<rect fill="white" width="15" height="24"/>
<path d="M1.34314 10.8324L10.8329 1.34314C11.2904 0.88562 12.0326 0.88562 12.4901 1.34314L13.597 2.45007C14.0541 2.9071 14.0546 3.64734 13.599 4.10535L6.078 11.661L13.5985 19.2172C14.0546 19.6752 14.0536 20.4154 13.5966 20.8724L12.4896 21.9794C12.0321 22.4369 11.2899 22.4369 10.8324 21.9794L1.34314 12.4896C0.88562 12.0321 0.88562 11.2899 1.34314 10.8324Z"/>
</mask>
<path d="M1.34314 10.8324L10.8329 1.34314C11.2904 0.88562 12.0326 0.88562 12.4901 1.34314L13.597 2.45007C14.0541 2.9071 14.0546 3.64734 13.599 4.10535L6.078 11.661L13.5985 19.2172C14.0546 19.6752 14.0536 20.4154 13.5966 20.8724L12.4896 21.9794C12.0321 22.4369 11.2899 22.4369 10.8324 21.9794L1.34314 12.4896C0.88562 12.0321 0.88562 11.2899 1.34314 10.8324Z" fill="#BCB7F3"/>
<path d="M1.34314 10.8324L10.8329 1.34314C11.2904 0.88562 12.0326 0.88562 12.4901 1.34314L13.597 2.45007C14.0541 2.9071 14.0546 3.64734 13.599 4.10535L6.078 11.661L13.5985 19.2172C14.0546 19.6752 14.0536 20.4154 13.5966 20.8724L12.4896 21.9794C12.0321 22.4369 11.2899 22.4369 10.8324 21.9794L1.34314 12.4896C0.88562 12.0321 0.88562 11.2899 1.34314 10.8324Z" stroke="black" stroke-width="2" mask="url(#path-1-outside-1_35_1154)"/>
</svg>
