<svg width="44" height="43" viewBox="0 0 44 43" fill="none" xmlns="http://www.w3.org/2000/svg">
<path fill-rule="evenodd" clip-rule="evenodd" d="M6.90555 15.6771C8.03761 12.2215 10.3864 9.29485 13.5149 7.44152L14.2795 8.73209C7.86481 12.5322 5.74527 20.8129 9.54533 27.2276C13.3454 33.6424 21.6262 35.762 28.0409 31.9619C34.4557 28.1618 36.5753 19.881 32.7752 13.4663C30.2394 9.18576 25.7085 6.81778 21.0682 6.84506L21.058 5.34734C24.6942 5.32259 28.2156 6.61956 30.9671 8.99695C33.7185 11.3743 35.5127 14.6703 36.0158 18.2716C36.519 21.8729 35.6968 25.5343 33.7022 28.5748C31.7076 31.6152 28.6765 33.8276 25.1728 34.8003C21.669 35.7731 17.9312 35.4399 14.6547 33.8629C11.3782 32.2859 8.78608 29.5723 7.36065 26.2271C5.93521 22.8818 5.77348 19.1327 6.90555 15.6771Z" fill="#89CED8"/>
</svg>
