<svg width="44" height="43" viewBox="0 0 44 43" fill="none" xmlns="http://www.w3.org/2000/svg">
<path fill-rule="evenodd" clip-rule="evenodd" d="M17.4405 34.8786C19.6305 35.4391 21.9189 35.4975 24.1347 35.0491C26.3505 34.6008 28.4362 33.6575 30.2361 32.2897C32.036 30.9218 33.5034 29.1648 34.5287 27.15C35.5539 25.1353 36.1106 22.9148 36.1569 20.6546C36.2033 18.3944 35.7382 16.153 34.7964 14.0979C33.8546 12.0428 32.4604 10.2271 30.7181 8.7866C28.9759 7.3461 26.9305 6.31804 24.735 5.77926C23.5066 5.47781 22.2489 5.33389 20.992 5.34797L21.0088 6.84557C25.6698 6.79766 30.2286 9.16754 32.7752 13.4663C36.5752 19.8811 34.4556 28.1618 28.0409 31.9619C24.8335 33.862 21.1595 34.2821 17.8125 33.4253L17.4405 34.8786Z" fill="#89CED8"/>
</svg>
