<svg width="44" height="43" viewBox="0 0 44 43" fill="none" xmlns="http://www.w3.org/2000/svg">
<path fill-rule="evenodd" clip-rule="evenodd" d="M6.33855 18.0399C5.85827 21.1252 6.35283 24.2836 7.75327 27.0745C9.1537 29.8653 11.3902 32.1496 14.1508 33.6087C16.9115 35.0678 20.0587 35.629 23.1535 35.214C26.2483 34.799 29.1365 33.4286 31.4153 31.2938C33.694 29.159 35.2498 26.3662 35.8655 23.305C36.4813 20.2438 36.1264 17.0667 34.8503 14.2169C33.5741 11.367 31.4405 8.98642 28.7468 7.40711C26.3906 6.02563 23.7086 5.3175 20.992 5.34796L21.0088 6.84557C25.6698 6.79766 30.2286 9.16754 32.7752 13.4663C36.5752 19.8811 34.4556 28.1618 28.0409 31.9619C21.6261 35.762 13.3454 33.6424 9.54529 27.2276C7.88317 24.4219 7.35355 21.2592 7.82047 18.2706L6.33855 18.0399Z" fill="#89CED8"/>
</svg>
