<svg width="35" height="44" viewBox="0 0 35 44" fill="none" xmlns="http://www.w3.org/2000/svg">
<mask id="path-1-outside-1_27_594" maskUnits="userSpaceOnUse" x="0" y="0" width="35" height="44" fill="black">
<rect fill="white" width="35" height="44"/>
<path d="M4.5 2C3.11719 2 2 3.11719 2 4.5C2 5.88281 3.11719 7 4.5 7V7.85938C4.5 11.1719 5.82031 14.3516 8.16406 16.6953L13.4609 22L8.16406 27.3047C5.82031 29.6484 4.5 32.8281 4.5 36.1406V37C3.11719 37 2 38.1172 2 39.5C2 40.8828 3.11719 42 4.5 42H7H27H29.5C30.8828 42 32 40.8828 32 39.5C32 38.1172 30.8828 37 29.5 37V36.1406C29.5 32.8281 28.1797 29.6484 25.8359 27.3047L20.5391 22L25.8438 16.6953C28.1875 14.3516 29.5078 11.1719 29.5078 7.85938V7C30.8906 7 32.0078 5.88281 32.0078 4.5C32.0078 3.11719 30.8906 2 29.5078 2H27H7H4.5ZM9.5 7.85938V7H24.5V7.85938C24.5 9.34375 24.0625 10.7812 23.25 12H10.75C9.94531 10.7812 9.5 9.34375 9.5 7.85938ZM10.75 32C11.0234 31.5859 11.3438 31.1953 11.6953 30.8359L17 25.5391L22.3047 30.8438C22.6641 31.2031 22.9766 31.5938 23.25 32.0078H10.75V32Z"/>
</mask>
<path d="M4.5 2C3.11719 2 2 3.11719 2 4.5C2 5.88281 3.11719 7 4.5 7V7.85938C4.5 11.1719 5.82031 14.3516 8.16406 16.6953L13.4609 22L8.16406 27.3047C5.82031 29.6484 4.5 32.8281 4.5 36.1406V37C3.11719 37 2 38.1172 2 39.5C2 40.8828 3.11719 42 4.5 42H7H27H29.5C30.8828 42 32 40.8828 32 39.5C32 38.1172 30.8828 37 29.5 37V36.1406C29.5 32.8281 28.1797 29.6484 25.8359 27.3047L20.5391 22L25.8438 16.6953C28.1875 14.3516 29.5078 11.1719 29.5078 7.85938V7C30.8906 7 32.0078 5.88281 32.0078 4.5C32.0078 3.11719 30.8906 2 29.5078 2H27H7H4.5ZM9.5 7.85938V7H24.5V7.85938C24.5 9.34375 24.0625 10.7812 23.25 12H10.75C9.94531 10.7812 9.5 9.34375 9.5 7.85938ZM10.75 32C11.0234 31.5859 11.3438 31.1953 11.6953 30.8359L17 25.5391L22.3047 30.8438C22.6641 31.2031 22.9766 31.5938 23.25 32.0078H10.75V32Z" fill="#61BECB"/>
<path d="M4.5 2C3.11719 2 2 3.11719 2 4.5C2 5.88281 3.11719 7 4.5 7V7.85938C4.5 11.1719 5.82031 14.3516 8.16406 16.6953L13.4609 22L8.16406 27.3047C5.82031 29.6484 4.5 32.8281 4.5 36.1406V37C3.11719 37 2 38.1172 2 39.5C2 40.8828 3.11719 42 4.5 42H7H27H29.5C30.8828 42 32 40.8828 32 39.5C32 38.1172 30.8828 37 29.5 37V36.1406C29.5 32.8281 28.1797 29.6484 25.8359 27.3047L20.5391 22L25.8438 16.6953C28.1875 14.3516 29.5078 11.1719 29.5078 7.85938V7C30.8906 7 32.0078 5.88281 32.0078 4.5C32.0078 3.11719 30.8906 2 29.5078 2H27H7H4.5ZM9.5 7.85938V7H24.5V7.85938C24.5 9.34375 24.0625 10.7812 23.25 12H10.75C9.94531 10.7812 9.5 9.34375 9.5 7.85938ZM10.75 32C11.0234 31.5859 11.3438 31.1953 11.6953 30.8359L17 25.5391L22.3047 30.8438C22.6641 31.2031 22.9766 31.5938 23.25 32.0078H10.75V32Z" stroke="black" stroke-width="4" mask="url(#path-1-outside-1_27_594)"/>
</svg>
