<svg width="29" height="29" viewBox="0 0 29 29" fill="none" xmlns="http://www.w3.org/2000/svg">
<path d="M15.7509 14.4816L15.5862 14.5759L15.5833 14.7657C15.5757 15.261 15.1665 15.6667 14.6666 15.6667C14.158 15.6667 13.7499 15.2586 13.7499 14.75V14.0469C13.7499 13.7194 13.9247 13.4177 14.2126 13.2527L14.0468 12.9635L14.2126 13.2527L16.5199 11.9298L16.5201 11.9297C16.868 11.7298 17.0833 11.3594 17.0833 10.9583C17.0833 10.3353 16.5784 9.83854 15.9635 9.83854H12.927C12.6108 9.83854 12.3258 10.0352 12.2211 10.3395L12.2201 10.3425L12.2003 10.4022C12.0318 10.8764 11.5057 11.1243 11.0333 10.9567C10.5603 10.7889 10.3081 10.2603 10.4755 9.78855L10.4756 9.78857L10.4776 9.78249L10.4984 9.71999L10.5427 9.58716C10.9417 8.63279 11.8819 8 12.927 8H15.9635C17.5967 8 18.9166 9.32438 18.9166 10.9531C18.9166 12.0106 18.3504 12.9891 17.4327 13.5183C17.4326 13.5184 17.4325 13.5184 17.4324 13.5185L15.7509 14.4816ZM14.6666 28C18.2912 28 21.7674 26.5601 24.3304 23.9971C26.8934 21.4341 28.3333 17.958 28.3333 14.3333C28.3333 10.7087 26.8934 7.23254 24.3304 4.66954C21.7674 2.10654 18.2912 0.666667 14.6666 0.666667C11.042 0.666667 7.56579 2.10654 5.00279 4.66954C2.4398 7.23254 0.999919 10.7087 0.999919 14.3333C0.999919 17.958 2.4398 21.4341 5.00279 23.9971C7.56579 26.5601 11.042 28 14.6666 28ZM13.3333 19.3333C13.3333 18.9797 13.4737 18.6406 13.7238 18.3905C13.9738 18.1405 14.313 18 14.6666 18C15.0202 18 15.3593 18.1405 15.6094 18.3905C15.8594 18.6406 15.9999 18.9797 15.9999 19.3333C15.9999 19.687 15.8594 20.0261 15.6094 20.2761C15.3593 20.5262 15.0202 20.6667 14.6666 20.6667C14.313 20.6667 13.9738 20.5262 13.7238 20.2761C13.4737 20.0261 13.3333 19.687 13.3333 19.3333Z" fill="#FBFCF4" stroke="black" stroke-width="0.666667"/>
</svg>
