<svg width="28" height="24" viewBox="0 0 28 24" fill="none" xmlns="http://www.w3.org/2000/svg">
<path d="M1.29171 3.66658C1.29171 2.01214 2.63726 0.666585 4.2917 0.666585H24.2917C25.0295 0.666585 25.625 1.26214 25.625 1.99992C25.625 2.7377 25.0295 3.33325 24.2917 3.33325H5.12504C4.48261 3.33325 3.95837 3.85749 3.95837 4.49991C3.95837 5.14234 4.48261 5.66658 5.12504 5.66658H24.2917C25.9461 5.66658 27.2917 7.01213 27.2917 8.66658V20.3332C27.2917 21.9877 25.9461 23.3332 24.2917 23.3332H4.2917C2.63726 23.3332 1.29171 21.9877 1.29171 20.3332V3.66658ZM24.0392 13.0857C23.6642 12.7106 23.1555 12.4999 22.625 12.4999C22.0946 12.4999 21.5859 12.7106 21.2108 13.0857C20.8357 13.4608 20.625 13.9695 20.625 14.4999C20.625 15.0303 20.8357 15.539 21.2108 15.9141C21.5859 16.2892 22.0946 16.4999 22.625 16.4999C23.1555 16.4999 23.6642 16.2892 24.0392 15.9141C24.4143 15.539 24.625 15.0303 24.625 14.4999C24.625 13.9695 24.4143 13.4608 24.0392 13.0857Z" fill="#61BECB" stroke="black" stroke-width="0.666666"/>
</svg>
