<svg xmlns="http://www.w3.org/2000/svg" xmlns:xlink="http://www.w3.org/1999/xlink" width="500" zoomAndPan="magnify" viewBox="0 0 375 374.999991" height="500" preserveAspectRatio="xMidYMid meet" version="1.0"><defs><clipPath id="8bd3760229"><path d="M 50.25 0 L 324.75 0 C 352.503906 0 375 22.496094 375 50.25 L 375 324.75 C 375 352.503906 352.503906 375 324.75 375 L 50.25 375 C 22.496094 375 0 352.503906 0 324.75 L 0 50.25 C 0 22.496094 22.496094 0 50.25 0 " clip-rule="nonzero"/></clipPath><clipPath id="e0c6ab59d6"><path d="M 57.386719 99.613281 L 318 99.613281 L 318 123.636719 L 57.386719 123.636719 Z M 57.386719 99.613281 " clip-rule="nonzero"/></clipPath><clipPath id="a1940edc89"><path d="M 69.277344 99.613281 L 305.722656 99.613281 C 308.875 99.613281 311.898438 100.863281 314.128906 103.09375 C 316.359375 105.324219 317.613281 108.347656 317.613281 111.503906 C 317.613281 114.65625 316.359375 117.679688 314.128906 119.910156 C 311.898438 122.140625 308.875 123.394531 305.722656 123.394531 L 69.277344 123.394531 C 66.125 123.394531 63.101562 122.140625 60.871094 119.910156 C 58.640625 117.679688 57.386719 114.65625 57.386719 111.503906 C 57.386719 108.347656 58.640625 105.324219 60.871094 103.09375 C 63.101562 100.863281 66.125 99.613281 69.277344 99.613281 " clip-rule="nonzero"/></clipPath><clipPath id="9089eb1e10"><path d="M 57.386719 175.609375 L 318 175.609375 L 318 199.632812 L 57.386719 199.632812 Z M 57.386719 175.609375 " clip-rule="nonzero"/></clipPath><clipPath id="6c224b9527"><path d="M 69.277344 175.609375 L 305.722656 175.609375 C 308.875 175.609375 311.898438 176.863281 314.128906 179.09375 C 316.359375 181.320312 317.613281 184.347656 317.613281 187.5 C 317.613281 190.652344 316.359375 193.679688 314.128906 195.90625 C 311.898438 198.136719 308.875 199.390625 305.722656 199.390625 L 69.277344 199.390625 C 66.125 199.390625 63.101562 198.136719 60.871094 195.90625 C 58.640625 193.679688 57.386719 190.652344 57.386719 187.5 C 57.386719 184.347656 58.640625 181.320312 60.871094 179.09375 C 63.101562 176.863281 66.125 175.609375 69.277344 175.609375 " clip-rule="nonzero"/></clipPath><clipPath id="f1f9a0b086"><path d="M 57.386719 251.890625 L 318 251.890625 L 318 275.914062 L 57.386719 275.914062 Z M 57.386719 251.890625 " clip-rule="nonzero"/></clipPath><clipPath id="0ae0e36f79"><path d="M 69.277344 251.890625 L 305.722656 251.890625 C 308.875 251.890625 311.898438 253.144531 314.128906 255.375 C 316.359375 257.605469 317.613281 260.628906 317.613281 263.78125 C 317.613281 266.933594 316.359375 269.960938 314.128906 272.191406 C 311.898438 274.421875 308.875 275.671875 305.722656 275.671875 L 69.277344 275.671875 C 66.125 275.671875 63.101562 274.421875 60.871094 272.191406 C 58.640625 269.960938 57.386719 266.933594 57.386719 263.78125 C 57.386719 260.628906 58.640625 257.605469 60.871094 255.375 C 63.101562 253.144531 66.125 251.890625 69.277344 251.890625 " clip-rule="nonzero"/></clipPath></defs><g clip-path="url(#8bd3760229)"><path stroke-linecap="butt" transform="matrix(0.75, 0, 0, 0.75, 0.0000045, 0.000000000000021316)" fill="none" stroke-linejoin="miter" d="M 67.000003 -0.000000000000028422 L 433.00005 -0.000000000000028422 C 470.005263 -0.000000000000028422 500.000059 29.994796 500.000059 67.000009 L 500.000059 433.000056 C 500.000059 470.005269 470.005263 500.000065 433.00005 500.000065 L 67.000003 500.000065 C 29.99479 500.000065 -0.000006 470.005269 -0.000006 433.000056 L -0.000006 67.000009 C -0.000006 29.994796 29.99479 -0.000000000000028422 67.000003 -0.000000000000028422 " stroke="#ffffff" stroke-width="40" stroke-opacity="1" stroke-miterlimit="4"/></g><g clip-path="url(#e0c6ab59d6)"><g clip-path="url(#a1940edc89)"><path fill="#ffffff" d="M 57.386719 99.613281 L 317.542969 99.613281 L 317.542969 123.636719 L 57.386719 123.636719 Z M 57.386719 99.613281 " fill-opacity="1" fill-rule="nonzero"/></g></g><g clip-path="url(#9089eb1e10)"><g clip-path="url(#6c224b9527)"><path fill="#ffffff" d="M 57.386719 175.609375 L 317.542969 175.609375 L 317.542969 199.632812 L 57.386719 199.632812 Z M 57.386719 175.609375 " fill-opacity="1" fill-rule="nonzero"/></g></g><g clip-path="url(#f1f9a0b086)"><g clip-path="url(#0ae0e36f79)"><path fill="#ffffff" d="M 57.386719 251.890625 L 317.542969 251.890625 L 317.542969 275.914062 L 57.386719 275.914062 Z M 57.386719 251.890625 " fill-opacity="1" fill-rule="nonzero"/></g></g></svg>